<?xml version="1.0" encoding="utf-8"?>
<!-- Generator: Adobe Illustrator 26.2.1, SVG Export Plug-In . SVG Version: 6.00 Build 0)  -->
<svg version="1.1" id="Layer_1" xmlns="http://www.w3.org/2000/svg" xmlns:xlink="http://www.w3.org/1999/xlink" x="0px" y="0px"
	 viewBox="0 0 382 382" style="enable-background:new 0 0 382 382;" xml:space="preserve">
<style type="text/css">
	.st0{fill:none;stroke:#1D1D1B;stroke-miterlimit:10;}
</style>
<g id="a">
</g>
<g id="b">
	<g id="c">
		<g>
			<path class="st0" d="M185.2,248.6l0.3-0.4c3.6-3.6,6.6-6.9,9.1-11.3c5-8.9,6.9-22,6.1-32c-0.7-8.4-3.2-16.4-6.6-24.1
				c-3.1-4.8-6.2-9.7-9.3-14.5c-6.4-8.9-8.9-20.1-8.9-30.8c0-6.5-2.3-14.7,2.3-20.3"/>
			<path class="st0" d="M251.8,251.9c1.7-4.5,3.4-8.9,5.1-13.4c0-5.1,0.1-10.2,0.1-15.4c0.8-4.5,3.2-8.3,3.8-12.9
				c1.4-11.7-2.2-21.1-3.8-32.2c-4.1-27-13.8-48.1-38.2-61.6c-10.7-5.9-27.7-8.7-38.3-1.3"/>
			<path class="st0" d="M238.9,256.7c1.3-1.7,2.7-3.5,4-5.2c2.9-7.5,5.8-15.1,8.6-22.6"/>
			<path class="st0" d="M225.7,256.4c2-1.8,4.1-3.7,6.1-5.5c4.5-4.7,7.5-10.9,11.1-16.3"/>
			<path class="st0" d="M216.4,256.8c7.1-7.1,11.1-12.4,15.6-21.7"/>
			<path class="st0" d="M200.4,257.3c0,0.9,5.3-3.4,7.1-5.1c5.2-5,8.1-11.2,12.1-17"/>
			<path class="st0" d="M184,260.5c5,0,18.8-18.4,21.3-21.9"/>
			<path class="st0" d="M140,161.4c6-6,9.4-16,13.2-23.6c0.9-0.8,1.8-1.7,2.7-2.5c6-4,12.4-7.4,16.2-13.7"/>
			<path class="st0" d="M198.8,223c-0.2,0.4-0.4,0.7-0.5,1.1c0,2.7-5.1,6.5-7.1,7.8L191,232l-0.1,0.1c-4.1,3.4-8.2,6.8-12.3,10.2
				c-7.7,3.6-13,7.9-22.2,7.9c-2-2-6.1-2.2-7.1-6.1c-1.3-4.9-2.6-9.9-3.9-14.8c-1.8-4.6-4.8-10.1-4.8-15c-2.8-2.7-4-10.4-4.8-14
				c-1-4.9-0.2-13.5,3.3-17.1c0-7-0.1-20.5-0.1-20.5c0-4.8-1-16.4,0.6-25c0.4-2.1,3.1-6.4,5-7.3c4.4-8.8,21.5-13.2,30.1-15.7"/>
			<path class="st0" d="M137.8,243.9c0.5-2.3,1-4.5,1.5-6.8c0.1-6.5,0.3-13.1,0.4-19.6"/>
			<path class="st0" d="M138.9,249.4c1-1.5,2.1-3,3.1-4.5c0.9-3.4,1.7-6.9,2.6-10.3"/>
			<path class="st0" d="M162.3,264.7l0.1-0.4c2.9-2.9,3.2-9.5,2.6-13.3"/>
			<path class="st0" d="M221,248.3c0,5.1,6,8.7,7.2,13.5c2.9,11.5-16,32.8-23.4,39.3c-3.3,2.9-6.9,7.2-11.6,8
				c-16.7,2.8-27.7-14-30.2-27.9c-0.4-2.2-3-15.5-0.8-16.6c-2.3-1.7-0.8-5.7-0.2-8.1"/>
			<path class="st0" d="M156.7,259.8c0,17.2,2.1,28.1,11.6,43.1c1.6,2.6,3.8,5.9,6.6,7.4c8.9,4.5,20.3,5.1,28.7-1.6
				c3.2-2.5,5.6-5.8,8.6-8.4c11.5-9.7,20.8-24.3,19.4-39.5"/>
			<path class="st0" d="M163.2,254.5c-2.6,0.6-5.2,1.3-7.7,1.9c-2.8,2.1-5.5,4.2-8.3,6.3c-6.8,1.2-13.6,1.1-20.3,1.8
				c-3.6,0.9-7.2,1.8-10.8,2.8c-2.8,0.1-5.6,0.1-8.3,0.2c-2.5,1.7-4.9,3.5-7.4,5.2c-2.8,1.9-5.6,3.8-8.4,5.7c-3.7,4.5-7.3,9-11,13.5
				c-4.8,4.8,1.1,8.6-3.6,13.3c-0.1,1.7-0.1,3.5-0.2,5.2c-1,2.3,1.1,7,1.1,7c-2.8,2.3-5.6,60.7-8.3,63c-0.5,0.2-1,0.5-1.5,0.7
				c5.1,0-4.9-0.4,0,0.9c7.5-0.2,14.9,0.1,22.4-0.1c15.6,0.3,31.2,0.5,46.7,0.8c14.7,0.4,29.4,0.9,44.1,1.4
				c16.4-0.9,32.8-1.1,49.1-2.8c5.1-0.9,18,1.7,23.1,0.8c6.7,0.2,19.8-0.2,26.5,0c29.4-1.4,8.6,0,38,0c0,0-4-14.5-4.4-14.8l2.7-33.4
				c-0.1-0.1,1-15.7,0.8-15.8c-3.9-2.9,4-3.1,1.1-6.8c-2.8-3.5,1.4-5.7-2.1-11c-6.2-4-2.6-8-8.9-11.6c-1.9-1.6-3.7-3.3-5.6-4.9
				c-5-3.2-11-7.7-16.9-9.2c-1.9,0.4-3.7,0.8-5.6,1.2c-7.1-1.1-13.5-4.7-20.1-7.1c-4.7-1.2-9.4-2.4-14.1-3.6
				c-5.2-1.8-8.5-6-13.8-7.2"/>
			<path class="st0" d="M274.9,278.8c-2.5,2.5-2.4,7.9-2.9,11.3c-1.4,9.2-3.5,84.7-7.4,92.5c-1.8,0-2.5-0.6-4-1.3
				c0-3.3,1.6-67.3,2.2-70.9c2.1-12.5,3.1-27.8,12.4-37c1.6,0,3.7,0.3,5.2,0.3l0.3,0.7c0,1-4.7,3.6-5.4,4.8L274.9,278.8L274.9,278.8
				z"/>
			<path class="st0" d="M118.3,269.3c1,4.5,2,9,3,13.5c0,8.7,0.1,17.5,0.1,26.2c0,2.4-4.2,73-8.2,73c-2.9,0,2.4-68.4,2.4-70.3
				l-0.9-33.9c-0.2-1.1-3-12.1-0.3-12.1c0.9,0.1,1.8,0.2,2.7,0.3c0.8,0.8,1.1,1.8,1.1,3L118.3,269.3L118.3,269.3z"/>
			<path class="st0" d="M278.1,360.3c0-10.3,0.8-57.9,4.7-68.8"/>
			<path class="st0" d="M107.6,354.7c2.9-2.9,0-51.9,0-56.5"/>
		</g>
	</g>
</g>
</svg>
