<svg xmlns="http://www.w3.org/2000/svg" viewBox="0 0 205.71 90"><defs><style>.cls-1{fill:#2238ce;}</style></defs><g id="Layer_2" data-name="Layer 2"><g id="Layer_1-2" data-name="Layer 1"><path class="cls-1" d="M202.22,0H176.37a9,9,0,0,0-7.52,5.12l-19,43.4-19-43.4A9,9,0,0,0,123.35,0H97.4a9,9,0,0,0-7.52,5.12L79.15,29.64,75.29,5.12A6.32,6.32,0,0,0,69.2,0H42.88a9,9,0,0,0-7.52,5.12L.46,84.88C-.78,87.71.58,90,3.5,90H29.34a9,9,0,0,0,7.52-5.12L47.59,60.36l3.86,24.52A6.33,6.33,0,0,0,57.54,90H83.86a9,9,0,0,0,7.53-5.12l19-43.4,19,43.4A9,9,0,0,0,136.89,90h25.94a9,9,0,0,0,7.52-5.12L205.26,5.12C206.49,2.29,205.13,0,202.22,0ZM51.51,51.4,70.44,8.16,75.23,38.6,56.31,81.84Zm61.73-16.46L125.66,6.56a2.8,2.8,0,0,1,.36.56l21,47.94L134.58,83.44a2.42,2.42,0,0,1-.36-.56Z"/></g></g></svg>