<?xml version="1.0" encoding="utf-8"?>
<!-- Generator: Adobe Illustrator 26.2.1, SVG Export Plug-In . SVG Version: 6.00 Build 0)  -->
<svg version="1.1" id="Layer_1" xmlns="http://www.w3.org/2000/svg" xmlns:xlink="http://www.w3.org/1999/xlink" x="0px" y="0px"
	 viewBox="0 0 382 382" style="enable-background:new 0 0 382 382;" xml:space="preserve">
<style type="text/css">
	.st0{fill:none;stroke:#1D1D1B;stroke-miterlimit:10;}
</style>
<g id="a">
</g>
<g id="b">
	<g id="c">
		<g>
			<path class="st0" d="M132.9,193.5c0.6-5.7-2.1-9.4-7.4-12c-1-1.1-1.9-2.2-2.9-3.3c-1.2-5.9-2.5-11.9-3.7-17.8
				c-1.2-9.7-7.4-11-1.2-22c3.6-6.4,12.1-7.6,16.8-12.5c-1.6,0.4-3.2,0.9-4.9,1.3c2.3-1.2,4.5-2.5,6.8-3.7c3.4-1.3,6.9-2.6,10.3-4
				c0-5.4,17-13.1,22.2-13.1"/>
			<path class="st0" d="M159.7,118.5c1.5-4.3,13.9-11.9,19.1-11.9"/>
			<path class="st0" d="M168.9,118c4.4-7.2,16.3-8.7,24-9.5c1.2-0.1,8.9,1.1,8.9-1.8c3.6,1.1,7.1,2.2,10.7,3.3
				c8,2.4,16.4,5.9,23.6,10.2c19.4,11.5,19.8,34,22.5,54.3c1,7.7-7.6,15.1-7.6,22.4l0.2,0c-0.1,0.7-0.1,1.4-0.2,2.1
				c-0.7-0.7-1.4-1.3-2.1-2c-6.7,0-8,8-8,13.4c-1.4-3.3-2.7-6.6-4.1-10c-3.4-9.5-4.6-21.3-11.8-28.5"/>
			<path class="st0" d="M169.9,141.9c3.3-7.3,9.1-12.3,17.6-12.3c2.6,0.7,4.6,3.3,6.5,5.1c8.5,7.8,7.8,17.3,4.8,27.7
				c-0.8,2.3-1.6,4.6-2.5,6.9"/>
			<path class="st0" d="M209.3,141.2c0,9,0.3,15.9-6.4,22.6"/>
			<path class="st0" d="M212.9,157.5c0.6,3.5,3.8,12.6,8.7,12.6"/>
			<path class="st0" d="M165.9,145.4c-6.4-9.4-25-15.1-34.8-7.5c-3.6,2.8-5,6.9-6.6,11.1c-0.8,2.4-1.6,4.7-2.4,7.1"/>
			<path class="st0" d="M160.1,150.3c-7-3.7-12.2,0.9-16.4,5.8c-1.6,2-3.1,3.9-4.7,5.9c-2.8,7.3-3.6,17.3-3.6,25"/>
			<path class="st0" d="M249.8,194L249.8,194c-0.6-0.1-1.2-0.2-1.9-0.3c-2.9-0.6-5.8-1.1-8.6-1.7c-2.4-0.1-4.9-0.2-7.3-0.4
				c-12.1-3-41.9-5.4-52.1-0.9c-2,0.9-2.6,2.8-4,4.2c-2.3,0-12.1-1.7-12.1,1.7c0-1.4-7.9-3.8-8.7-3.9c-5.7-1.1-24-0.1-28,4.7
				c0,0,5.7,17.4,8.7,18.9c3.5,1.8,4.8,2.6,8.6,3.4c4.5,1,9.5-0.1,13.4-2.1c1-1.7,4.3-3.3,5.3-5c3.1-7.5-1.3-12.2,8.1-15.5
				c4.4-1.6,7.3,11,8.7,13.9c1.2,0.9,4,3.3,5.2,4.2c5.3,2.6,11,3.2,16.8,2.3c2.3-0.3,4.1-2.1,5.6-3.6c2.1-2.1,4.5-4.2,5.4-7.2
				c1-3.5,0.3-9.6,4-11.7c3.4-2,12.4-2.9,15.5,0.2c5.4,0,10.9,1,16.5,1"/>
			<path class="st0" d="M135.3,217.5c2.5,16.4,2.7,38.7,16.4,50.3c5.8,4.9,13.3,16.3,21,17.6c20.8,3.5,39.3-8.6,53.8-23
				c4.1-4.1,9-8.8,11.1-14.4c1.4-3.8,5.1-17.8,3.5-22.4c-0.3-1.9-0.6-3.8-0.9-5.8"/>
			<path class="st0" d="M251,200.1c2.6,7.7,1.7,14.8-0.5,22.4c-1.9,6.3-1.9,10.8-9.1,10.8"/>
			<path class="st0" d="M234.8,260.1c10,16.6,12.4,17.4,29.6,17.4c10,10,15.3,8.1,28.1,9.2c7.3,1.4,14.5,2.8,21.8,4.2
				c14.1,4.2,36.3,6.8,40.3,24.1c1.1,4.9,0.1,64.5,0.1,69.3c-2.8,2.7-14.3,3.2-17.9,3.5c-14.6,1-29.2,2.1-43.8,3.1
				c-15.4,0.7-30.4,5.1-45.8,5.4c-39.7,0.7-79.4-0.1-119-1.7c-4.6-0.4-9.2-0.8-13.7-1.2c-13-1.7-26.3-1.5-39.1-3.9
				c-3.9-0.7-31.8-4.9-33.1-1.2c18.3-51.7,27.1-63.9,30-67.9c2.3-3.2,1.2-5.8,5.7-8c17.1-8.2,37.2-7.7,53.6-17.5
				c7.6-4.5,14.8-6.6,21.1-12.8c1.6-1.6,3.1-3.1,4.7-4.7"/>
			<path class="st0" d="M163.9,285.9c-0.8,6.2-0.8,17.8,4.2,22.8c5.5,3.7,15.2,2.8,21.4,2.2c7.9-0.7,24.9-5.2,30.9-10.7
				c3.3-4.5,6.6-9,9.9-13.5c2.5-3.2,5.9-7.1,6.7-11.2c0.5-2.8-1.3-5.1-1.3-7.4"/>
			<path class="st0" d="M326.8,304.8c-4.9,1.9-25.7,16.3-25.7,22.6"/>
		</g>
	</g>
</g>
</svg>
