<?xml version="1.0" encoding="utf-8"?>
<!-- Generator: Adobe Illustrator 26.2.1, SVG Export Plug-In . SVG Version: 6.00 Build 0)  -->
<svg version="1.1" id="Layer_1" xmlns="http://www.w3.org/2000/svg" xmlns:xlink="http://www.w3.org/1999/xlink" x="0px" y="0px"
	 viewBox="0 0 382 382" style="enable-background:new 0 0 382 382;" xml:space="preserve">
<style type="text/css">
	.st0{fill:none;stroke:#1D1D1B;stroke-miterlimit:10;}
</style>
<g id="a">
</g>
<g id="b">
	<g id="c">
		<g>
			<path class="st0" d="M133.2,194.8c0,7.1-0.4,12.7-0.4,19.5c0,0-1.1,12.8-0.4,18.5c0.7,5.4,4.8,15.1,4.8,19.4
				c1.2,1.4,2.5,2.8,3.8,4.1c15,7.5,27.6,2.9,42.4-3.3c4.5-1.4,8.9-2.9,13.4-4.3c10.9-5.5,21.6-18.7,21.6-30.9 M155.9,260.3
				c-6.5,0-30.3,10.8-30.3,10.8c-3.9,2.5-7.9,5.1-11.8,7.6c-10.5,6.7-12.6,18.6-19.6,27.9c-2.1,7.4-6,13.1-8,20.6
				c-2.1,10.6-3,21.8-5.5,32.3c-1.5,6.2-3.6,13.7-3.6,20.1c25.7,0,51.5,1.9,77.3,2.3c31.3-0.8,62.7-1.6,94-2.5
				c28.8-1,58.2-3.4,86.6-7.4c4.3-0.6,7.9,1.2,11.9,1.2c0-6.4-3.5-10.7-5.3-17.1c-2.1-7.4-4.5-15.2-8-22c-2.3-3.4-4.7-6.7-7-10.1
				c-1.2-4.1-3.8-12.4-3.8-12.4c-1.7-2.4-3.3-4.9-5-7.4c-4.5-4-9-8.1-13.5-12.1c-5-3.1-10-6.2-14.9-9.4c-2.5-1.8-3-5.5-5.4-6.9
				c-9.8-5.8-18.7-12.4-26.7-20.3c-5.2-5.1-17.9-6.7-19.7-14.1c-5.2-21.2,0.6-15.5,10.4-30.1c5.3-8,8.2-17.2,11.9-25.8
				c1.3-2,2.6-3.9,3.9-5.9c2.4-9.6,6-18.5,7.6-28.3c0.9-5.2-3-14.6-3-14.6c-2.1-6.3-21.3-25.2-27.2-29.1l-11.8-3.5
				c-6-2.5-9.9-9.2-16.6-10.2c-15.7-2.1-20-0.8-35.5,4c-9.6,2.9-16.1,5.1-23.8,12.1c-9,8.2-25.6,27.6-27.1,39.8
				c-0.4,3.6-0.9,11.9,1.8,14.6l0.4,0.3c2.5,1.6,4.5-0.8,6-0.1c0.6,0.3,1.1,0.7,1.6,1v-0.5c-0.1-0.2-0.1-0.4-0.2-0.6
				c-0.7-2.7-1.3-1.6-1.7,1.7"/>
			<path class="st0" d="M208.6,185c0-2,0.1-4.1,0.1-6.1c7.1,7.2-5.5,26.2,0.5,32.3v0.1c5.4-5.4,21.4-33.6,32.6-20.4
				c7.8,9.2-5.6,21-5.1,30.5"/>
			<path class="st0" d="M202.6,183.7c0-7.1-6.3-14.1-2.5-21.3"/>
			<path class="st0" d="M194.1,177.5c0-5.6-2.4-10.9-1.5-16.6"/>
			<path class="st0" d="M184.5,176c0-1.6-2.1-4.3-2.2-6.4c0.5-5.9,1-11.8,1.4-17.6"/>
			<path class="st0" d="M172.8,174.4l-1.7-5c-0.5-6.4,1-14.7,3.2-20.7"/>
			<path class="st0" d="M161.6,171.5c-3.6-3.5-4.6-8.5-5.2-13.3c0.2-2.9,0.4-5.8,0.7-8.6"/>
			<path class="st0" d="M153.8,169.3c-3.8-3.7-5.1-13-3.9-17.9"/>
			<path class="st0" d="M144.7,175.5c-6.8-6.7-5.6-20.1-1.3-27.5"/>
			<path class="st0" d="M137.6,164.8l-0.2-0.4c-1.8-4.4-3.5-9.5-2.2-14.3"/>
			<path class="st0" d="M171.2,189.6c15.1,0,31.1-1.2,46.4-1.2"/>
			<path class="st0" d="M172.8,187.9c0,4.9-1.3,16.9-7.1,18.4c-14.1,3.5-24.5-16.5-19.7-28.1c4.4-10.5,24.5-0.8,25.3,9.5"/>
			<path class="st0" d="M139.3,174.7c0,5.9,0.8,24.8-10.5,19.1c-7.3-3.6-10.3-22.8-4.7-28.4c9.6,0,14.1,0.6,14.1,11.4c2,1,4,2,6,2.9
				"/>
			<path class="st0" d="M216.8,225.9c9.5,0,13.8-5.5,20.2-11.7"/>
			<path class="st0" d="M167.1,261.5c-8.6,59.7,50.5,28.3,71.4,12.5c7.8-5.9,14.3-15.1,4.8-21.8"/>
			<path class="st0" d="M158,269.9c-2.7,8.1,4.6,35.6,13.5,39.3c6.1,2.5,14.6,1.5,21,1.2c23.6-1.2,56.8-20.2,69.3-40.5"/>
			<path class="st0" d="M260.6,358.4c1-2,2-4,3.1-6c7.3-20,11.4-33.4,33.2-40.7c3.8-1,7.5-2,11.3-3"/>
		</g>
	</g>
</g>
</svg>
