<svg xmlns="http://www.w3.org/2000/svg" viewBox="0 0 334.42 94.67"><defs><style>.cls-1{fill:#fff;}</style></defs><g id="Layer_2" data-name="Layer 2"><g id="Layer_1-2" data-name="Layer 1"><path class="cls-1" d="M21.34,84.64H0V55.23H21.34ZM14.11,78.8V61H7.43V78.8ZM26.85,51.53h7.54V94.67H26.85Z"/><path class="cls-1" d="M50.29,55.13H71.45v6H57.74V78.43c7.19,0,11.48-.2,16.26-1l.64,6c-5.42,1.12-10.8,1.29-20.5,1.27H50.29ZM84.11,94.67H76.56V51.53h7.55Z"/><path class="cls-1" d="M120.71,66.51h6.1v-15h7.38V94.67h-7.38V72.41h-6c-.77,8.14-5.28,13.08-11.26,13.07-6.63,0-11.43-6-11.41-15.62,0-9.48,4.78-15.5,11.41-15.49C115.32,54.36,119.71,59,120.71,66.51ZM109.55,78.69c2.63,0,4.27-2.76,4.31-8.83s-1.68-8.74-4.31-8.71-4.29,2.78-4.26,8.71S107,78.69,109.55,78.69Z"/><path class="cls-1" d="M148.35,55.57h7.43V78A100.33,100.33,0,0,0,172,76.26l.74,6.16a102.36,102.36,0,0,1-20.45,1.74h-3.9Zm38.7,17.76h-5.51V94.4h-7.46V51.53h7.46V67.3h5.51Z"/><path class="cls-1" d="M198.88,54.84h7.46V64.7h7V54.84h7.34v30h-21.8Zm14.46,24V70.44h-7v8.38Zm19.93,15.85h-7.55V51.53h7.55Z"/><path class="cls-1" d="M11.16,0l8,19.56h.4L27.6,0h11V33.67H30V13.87h-.26L22,33.42h-5.3L9.07,13.74H8.81V33.67H.15V0Z"/><path class="cls-1" d="M51.67,0h24V7.15H60.53v6.1H74.47v7.17H60.53v6.1H75.67v7.15h-24Z"/><path class="cls-1" d="M88.92,33.67V0h12.71C112,0,118.46,6.31,118.46,16.83S112,33.67,101.72,33.67Zm12.48-7.53c5.19,0,8.13-2.2,8.13-9.31s-2.94-9.3-8.35-9.3h-3.4V26.14Z"/><path class="cls-1" d="M140.17,33.67h-8.86V0h8.86Z"/><path class="cls-1" d="M152,33.67,163.18,0h12l11.18,33.67h-9.55l-2-6.61H163.57l-2,6.61Zm20.78-13.29L169.33,9.06h-.26l-3.46,11.32Z"/><path class="cls-1" d="M227.22,33.67h-7.41L207.3,15.5h-.2V33.67h-8.86V0h7.54l12.33,18.12h.27V0h8.84Z"/><path class="cls-1" d="M239.07,33.67,250.24,0h12l11.18,33.67h-9.55l-2-6.61H250.64l-2,6.61Zm20.78-13.29L256.39,9.06h-.26l-3.45,11.32Z"/><path class="cls-1" d="M296.38,24h.27l7.08-24h10L302.53,33.67h-12L279.32,0h10Z"/><path class="cls-1" d="M334.42,33.67h-8.87V0h8.87Z"/></g></g></svg>