<?xml version="1.0" encoding="utf-8"?>
<!-- Generator: Adobe Illustrator 26.2.1, SVG Export Plug-In . SVG Version: 6.00 Build 0)  -->
<svg version="1.1" id="Layer_1" xmlns="http://www.w3.org/2000/svg" xmlns:xlink="http://www.w3.org/1999/xlink" x="0px" y="0px"
	 viewBox="0 0 382 382" style="enable-background:new 0 0 382 382;" xml:space="preserve">
<style type="text/css">
	.st0{fill:none;stroke:#1D1D1B;stroke-miterlimit:10;}
</style>
<g id="a">
</g>
<g id="b">
	<g id="c">
		<g>
			<path class="st0" d="M240.9,193.2c0-9.7-0.7-16.1,6.6-23.4c-1.2-1.2,1.3-23,1.5-25.7c1.8-21.9-17-34.2-36.2-39
				c-7.2-1.8-16.2-1.4-23.6-0.8c-8.4,0.7-22.4,0.8-26.7,10"/>
			<path class="st0" d="M142.6,108.3c2.6-2.6,15.9-4.5,18.8-5c3.7-0.9,7.3-1.9,11-2.8c7.4-1.1,29.2-2,35.5,1.7"/>
			<path class="st0" d="M129.4,179.5c0-8-0.5-15.9-1.1-23.9c-0.8-2.6-1.5-5.2-2.3-7.8c-1.8-6.2-0.9-12.3,1.4-18.3
				c1.9-4.9,8.5-18.3,12.9-21.1c5.2-3.3,13.7,0.3,15.3,6.2"/>
			<path class="st0" d="M232.2,178.4c1.9,3.3,3.8,6.6,5.7,9.8"/>
			<path class="st0" d="M231.1,170.7c2.1,2.2,4.7,5,5.8,7.9"/>
			<path class="st0" d="M212.7,149.4c6.4,6.5,20.5,12.7,22.1,22.1"/>
			<path class="st0" d="M169.2,130.2c3.2,0,6.9-3.3,10.5-2.7c13.1,2.4,24.6,1.7,34.4,12.9l5.7,8.3"/>
			<path class="st0" d="M159.2,129.9c3.8-2.1,7.6-4.3,11.4-6.4"/>
			<path class="st0" d="M130.2,177.8c0-22.1,14.9-37.9,29.1-52.7"/>
			<path class="st0" d="M217.2,247.5c0,9.2-25.7,23.2-33.8,24.9c-4.6,1-8.5-1.1-12.5-1.1c-2.4-2-4.9-3.9-7.3-5.9
				c-6.4-8-12.8-16-19.2-24c-5.2-8.2-8.5-19.6-10.9-29c-1.8-7.4,0.4-14.3-0.8-21.4c-0.6-3.7-2.4-7.4-2-11.3"/>
			<path class="st0" d="M186.4,275.5c2.4,2.5,17.7-7.2,20.1-8.5c19.5-11.1,33.9-34.9,33.9-57.4c3.4,0,3.6,2.4,8.7-0.5
				c2.7-1.6,3-6.5,3.9-9.1c2.9-8.7,4.1-24.9-5-29.9"/>
			<path class="st0" d="M166,270.7c-10.9,0-20.8,10-30.3,15.4c-9.1,5.1-24,5.1-31.6,10.9c-2.7,2.1-4.4,4.8-6.7,7.2
				c-4.6,4.6-35.3,30.3-52.4,77.5c-0.3,0.2-0.6,0.5-1,0.8c19.6,0,74.6-1.6,94.2-0.9c6.3,0.6,12.6,1.1,18.9,1.7
				c12.7,0.3,35.9-2,48.7-1.2c19.9,1,33.4-1,53.2,0c12.1-1.2,27.4,0.9,39.5,0c17.7-1.3,34.5,2.6,52,0c6.4-0.9,13,2.2,19.5,1.3v-4.2
				c2.5-41.7-10.8-70.2-13.1-71.7c-2.4-2.1-4.7-4.1-7.1-6.2c-4.7-3.2-9.4-6.5-14.1-9.7c-3.2-1.3-6.4-2.5-9.6-3.8
				c-3.7-1.9-6.8-4.7-10.8-5.9c-4.3-1.3-8.6-0.6-12.9-1.3c-4.6-1.9-9.2-3.9-13.8-5.8c-1.6-0.5-3.1-0.9-4.7-1.4
				c-7-1.9-13.9-3.8-20.9-5.8c-2.1-1.9-4.1-3.7-6.2-5.6c-4.5-1.8-10.9,0.9-14.6-2.8c-1.7-6.8,0.1-14.3-0.3-21.4
				c-0.3-6.8-0.6-13.6-0.9-20.4"/>
			<path class="st0" d="M164.3,277.4c0,5.4-2.6,10-1,15.7c2,7,9.8,16.5,17,18.5c11.6,3.3,34.7-3.8,44-10c5.8-4.7,11.5-9.4,17.3-14.1
				c6.6-4.7,15.6-17.7,7-24.1"/>
			<path class="st0" d="M249.9,292.5c0,3.5-5.6,7.4-7.9,9.7c-8.2,8.2-20.8,11.8-31.9,13.7c-23.3,3.9-46.6,5.3-52.7-23
				c-1.1-5,0.8-10.2,0.8-15.4"/>
			<path class="st0" d="M312.6,314.5c0-3.3,11.7-17.9,13.9-22"/>
		</g>
	</g>
</g>
</svg>
