<?xml version="1.0" encoding="utf-8"?>
<!-- Generator: Adobe Illustrator 26.2.1, SVG Export Plug-In . SVG Version: 6.00 Build 0)  -->
<svg version="1.1" id="Layer_1" xmlns="http://www.w3.org/2000/svg" xmlns:xlink="http://www.w3.org/1999/xlink" x="0px" y="0px"
	 viewBox="0 0 382 382" style="enable-background:new 0 0 382 382;" xml:space="preserve">
<style type="text/css">
	.st0{fill:none;stroke:#1D1D1B;stroke-miterlimit:10;}
</style>
<g id="a">
</g>
<g id="b">
	<g id="c">
		<g>
			<path class="st0" d="M127.6,187.7c1.2-8,13.3-11.2,20.4-10.1c3.2,0.5,6.5,1.1,9.7,1.6c8.2-1.1,13.3-9.5,21.7-11.1
				c4.7-0.9,9.4-1.3,14.1-2.1l9.9,0c5.1-0.5,10.7-2.5,16.1-3.4c7.6-1.2,15.2-2.6,22.8-3.7c1.3-0.2,7.5,0.6,7.5,1.4"/>
			<path class="st0" d="M128,189.6c0.3,2.3,5.9,10.5,7.8,12.4c6.1,0,15.6,0.5,19.8-5.1c2.9-3.9,0.3-16,6.5-16c0,0,10.2,10.1,11.1,11
				c16.4,0,28.1,2.7,28.1-17.6c0.4-0.4,2.8-5.4,2.8-5.9l-0.1-0.1"/>
			<path class="st0" d="M204.7,171.2c5.5-2.8,12.1-3.2,18.1-4.7c8.5-2.1,16.2-5.8,24.8-5.8"/>
			<path class="st0" d="M167.2,178.5c-0.2,2.8,2.9,10.1,6.1,10.1"/>
			<path class="st0" d="M188.4,110.3c-5.4-2.9-15.6-0.5-20.9,1.1c-5.3,1.6-9.9,3.3-14.6,6.4c-8.7,5.7-10.2,10.6-13.5,19.6
				c-0.2,0.5-5.6,17.1-6.1,17.6c0,4.4-0.1,8.9,0.9,13.1c-0.1,2-0.1,4-0.2,6.1c0.3,1.2,0.6,2.4,0.9,3.6"/>
			<path class="st0" d="M186.2,113.7c-3.9,0-8,2.2-11.7,3.5c-16.6,6-20.2,8.8-30.2,22.4c-1.8,2.5-8.6,9.3-8.6,12.2"/>
			<path class="st0" d="M133.2,149.9c0.6-8.8-1.7-19.2,1.9-27.5c3.7-8.6,21.1-18.7,30.1-21.2c7.2-1,14.4-1.9,21.6-2.9
				c3.9-0.2,7.9-0.3,11.8-0.5c2.8-0.6,5.8-0.2,8.6-0.8c0.4-0.1,0.7-0.2,1.1-0.2l0.5,0.3c8.6-2.2,15.5,0.3,22.6,5.2
				c2.7,1,5.3,1.9,8,2.9c6.9,5.2,12.7,12.8,15.5,20.9c3.2,9.5,1.9,19.9,0.8,29.5c0.2,1.4,0.4,2.7,0.6,4.1"/>
			<path class="st0" d="M194.4,104c1.6,1.3,4.8,4.7,4.8,6.9"/>
			<path class="st0" d="M202.3,105.8c0.7,2.8,4.4,7.4,6.4,9.5c2,7.9,5.7,15.7,10.7,22c2.8,2.6,5.7,5.3,8.5,7.9"/>
			<path class="st0" d="M218.5,140.9c0.4,4.5,6.3,16,9.7,19.4"/>
			<path class="st0" d="M231.9,166.6c1.6,1.8,3.2,3.7,4.8,5.5c0.9,2.5,1.8,5,2.7,7.5c0.5,1.4,1,2.9,1.5,4.3v-1.4
				c0-2.8-0.4-5.2-0.8-7.9c-0.4-3.4,0.8-6.1,0.8-9.3c0.6-1,1.2-2,1.8-3"/>
			<path class="st0" d="M251.5,159.3c4.7-3,9,3.8,9.7,7.9c0.9,5.5,1.5,11.2,2.2,16.7c0.4,3.1-1,5.9-1,8.9c-1,1-2.8,4.4-3.5,5.8
				c-10.9,5.4-9.7-5.7-13.1-9.1"/>
			<path class="st0" d="M251.2,199.8c0,4.2,0.6,8.1,1.3,12.3c1.3,7.7-0.7,15.2,5,21.8c2.3,2.6,5,4.9,8.1,6.5
				c1.5,0.7,2.9,1.4,4.4,2.1c2.1,0,5.5,1,6,3.4c0.7,3.5-9.5,19.7-11.6,23.4c-6.7,11.9-15.8,19.7-28.1,24.9
				c-3.9,1.7-7.8,4.4-12.2,4.8c-16.7,1.5-29.6-0.8-39.3-15.3c0-4.4-1.2-9.1-1.2-13.7c0,0,9.7,2.7,14.8,2.7"/>
			<path class="st0" d="M138.4,203.6c0,8,2.6,17.7,7,24.4c0,2.2,4.5,10.3,6.4,12.2c5.1,5.1,11,7.8,15,14c3.5,3.8,7.1,7.7,10.6,11.5
				c1.4,0.9,2.9,1.8,4.3,2.8"/>
			<path class="st0" d="M175.8,258.7c2.4,0.6,4.8,1.1,7.3,1.7c4.7,0.3,26.9-2.4,26.9-9.4"/>
			<path class="st0" d="M174,264.1c-7.2,1.4-13,5.5-19.6,7.9c-6.5,2.4-12.7,3.3-16.5,9.7c-2.8,5.4-18.4,38-21.2,43.4
				c-1.5,2.3-19.6,56.8-19.6,56.8c35.9,0,57.5,0.6,69,0c17.6,0.1,26.2-0.1,43.9,0c7.2-0.6,20.1,0.3,27.4,0
				c6.5,0.3,14.3-1.8,20.8-1.5l25.1,1.5c4.3,0.4,30.5-1.8,34.8-2c27.1-1.4,13.2,5.3,40.2,2.3c4.7-0.5,20.6,0,25.4,0
				c0-2.4-12.6-98.6-14.6-101.6c-3.2-4.9-7.1-9.9-11.8-13.4c-2.3-0.9-4.7-1.7-7-2.6c-7.3-2.7-15.2-3.9-22.6-6.3
				c-19.7-6.4-35.7-15.5-56.7-15.5"/>
			<path class="st0" d="M289.3,251.2c-2.3,12.1-5,22.9-14.1,31.7c-3.7,3.6-8.4,6.2-12.7,9.1c-1.6,0.9-3.2,1.8-4.8,2.7"/>
			<path class="st0" d="M135.7,183.1c1.3,5.9,2.2,12.1,2.2,18.3"/>
		</g>
	</g>
</g>
</svg>
