<?xml version="1.0" encoding="utf-8"?>
<!-- Generator: Adobe Illustrator 26.2.1, SVG Export Plug-In . SVG Version: 6.00 Build 0)  -->
<svg version="1.1" id="Layer_1" xmlns="http://www.w3.org/2000/svg" xmlns:xlink="http://www.w3.org/1999/xlink" x="0px" y="0px"
	 viewBox="0 0 382 382" style="enable-background:new 0 0 382 382;" xml:space="preserve">
<style type="text/css">
	.st0{fill:none;stroke:#1D1D1B;stroke-miterlimit:10;}
</style>
<g id="a">
</g>
<g id="b">
	<g id="c">
		<g>
			<path class="st0" d="M240.7,204.5c2.3-2.5,4.6-5.1,6.9-7.6c4.1-7.3,7.1-16.8,2.9-25.1c-4.6-9.1-22.2-32.5-31.1-36.2
				c-28.2-11.7-61.6,3.2-72.3,31.3"/>
			<path class="st0" d="M230.6,169.3c-3.3-2.6-6.7-5.2-10-7.7c0-3.2-7-7.3-9-9c-11.2-9.3-30-11.8-42.4-3.8
				c-8.2,5.3-14.3,12.1-20.8,19.2"/>
			<path class="st0" d="M233.6,182.2c-8.2,0-15.9-12.3-18.7-18.5"/>
			<path class="st0" d="M242.3,196.7c-1.5,1.2-3,2.5-4.5,3.7c-6.8,3.8-10.9-0.5-16-3.4"/>
			<path class="st0" d="M230.2,197.4c-3.9-3.9-6.1-10.4-9.6-14.9"/>
			<path class="st0" d="M227.7,231.6c0,2.3,11.6,2.2,13.8,1.2c7.2-3.1,13.5-22.6,10.1-29.5c-1.4-1.1-2.8-2.3-4.2-3.4"/>
			<path class="st0" d="M146.9,168.7c-2.9,2.9-3.4,9.4-4.2,13.5c-1.5,7.8-1.2,15.2-1.2,23.1c-2.4,2.4-2.5,28.1-2.1,31.7
				c0.6,5.8,2.7,11.1,4.1,16.7c1.1,4.4,8.1,21.1,12.6,23.2c5,2.3,11,2.1,16.4,1.6c6.3-0.6,11.9-0.8,17.9-3.2
				c18.9-7.9,36.9-31.5,42.1-50.7"/>
			<path class="st0" d="M278.2,261.5c0-5.6,5.3-10,4.7-15.7c-1.5-4.4-3.1-8.9-4.7-13.3c-2.3-6.1-3.1-12.7-5.6-18.9
				c-2.1-5.3-5.5-9.8-8.3-14.7c-3.4-5.8-3.5-12.6-11.1-14.6"/>
			<path class="st0" d="M230,297.6c-0.5-1.4-1.1-2.9-1.6-4.3c-0.8-5.2-1.6-10.4-2.5-15.7c-1.5-14.2,3.5-29.1,8.6-42"/>
			<path class="st0" d="M164.5,303c0-7.1,7.2-15.3,2.3-22.6"/>
			<path class="st0" d="M229.7,293.4l13.1,5.6c0,6.6-12,14.8-16.9,18c-19.1,12.1-37.1,13-59.2,10.7c-3.4-1.1-6.8-2.2-10.1-3.3
				c-3.2-2.7-10.5-14.6-7.5-18.5c3.7-4.9,9.8-4.1,14.2-7.4"/>
			<path class="st0" d="M283.3,279.9c-3.1-6.2-7.8-12-8.6-19.2c-1.4-13.3,3.8-20.1-6.8-30.8"/>
			<path class="st0" d="M274.4,300.2c-0.6-2.7-1.3-5.4-1.9-8c0.1-7,0.1-14.1,0.2-21.1c0,7.1,6.1,12.3,6.1,19.7
				c0,0.6,0.3,7.4-1.4,7.4c0.1-0.6,0.2-1.2,0.4-1.9c2-4.5,4.7-7.3,5.1-12.5"/>
			<path class="st0" d="M270.1,296.3c-2.2-2.1-3.8-17.4-4.2-20.9c-0.5-11.7-1.1-23.3-1.6-35c-0.4-8.4-2.9-16.4-2.9-24.8"/>
			<path class="st0" d="M258.2,299.7c0-3.7-0.2-7,1.6-10.8c1.3-2.9,3.9-4.8,3-8.3"/>
			<path class="st0" d="M255.6,300c-1.4-2-2.8-4-4.2-6c-2.1-5-4.1-10-6.2-15c-0.9-4.6-1.7-11.3,0-15.9c1.9-5,5.1-8.1,4.1-13.8"/>
			<path class="st0" d="M248,293.9c-7.3-7.2-10.2-17.3-12.1-27.1"/>
			<path class="st0" d="M238.8,290.4c0-8.6-7.3-13.5-7.9-21.6"/>
			<path class="st0" d="M235.6,291.3c-0.8-1.6-1.5-3.1-2.2-4.7c-0.3-2.5,0.6-4.7-0.4-7.2"/>
			<path class="st0" d="M165,296.8l-0.2-0.1c-8.2,0-16,4.4-24.2,5.1c-6.7,0.6-14-1.4-20.5,0.5c-9.4,2.8-22.5,11.6-30.5,17.1
				c-1.7,1.4-3.3,2.8-5,4.3c-4.2,9.5-8.4,19-12.6,28.6c-1.6,2.1-4.1,3.7-5.7,6.1c-7.5,3.8-18.5,0.2-24.4,7.2
				c-0.8,1.9-1.5,3.7-2.3,5.6c-0.8,1.6-1.6,3.3-2.4,4.9c10,0,19.9,1.6,29.9,2c11.7-0.5,23.5-1,35.2-1.5c39.7,1.1,79.2,3.4,119,4.6
				c24.8,0.8,49.7-1.1,74.5-2.5c7.1,0,14.2,0,21.4,0c19.3-0.6,38.6-1.3,57.9-1.9c-2.3-0.9-4.5-1.9-6.8-2.9c-3.2-2.4-5.3-5.2-9.2-6.7
				c-4.6-1.2-9.2-2.5-13.8-3.8c-2.8-5.6-6-10.4-10.1-15.2c-2.5-2.3-5-4.6-7.5-6.9c-2.5-4.3-5-8.7-7.5-13.1c-2.3-2.5-4.5-4.9-6.8-7.4
				c-3.2-2.3-9.3-3.4-10.7-7.2l0-0.3c-3.1-1.5-6.9-0.2-10.3-0.2c-1.5,1.2-3,2.4-4.5,3.7c-1.2,0-2.5,0-3.7,0.1l-0.2-0.4
				c0.2-0.9,0.4-1.8,0.6-2.6c1.7-1.7,4.5-1.8,6.8-1.8c0-5.6-9.7-5.4-13.7-5.8c-12.5-3.5-25-7-37.6-10.5"/>
			<path class="st0" d="M110.3,379.8c0-23.7-2.2-47.5,4.7-70.4"/>
			<path class="st0" d="M97.9,363c-0.6-3-1.1-5.9-1.7-8.9c-0.9-7-1.6-16,6-19.7h0.4c0.3,0.5,0.7,1.1,1,1.7"/>
			<path class="st0" d="M285.2,362.1c0-17.6-1.1-25.1,12.8-38.1"/>
			<path class="st0" d="M225.4,220.5c0-3.4-1.9-17.6-3.7-19.5"/>
		</g>
	</g>
</g>
</svg>
